M48
; DRILL file {KiCad (7.0.0-0)} date Thursday, 07 September 2023 at 02:08:47
; FORMAT={-:-/ absolute / metric / decimal}
; #@! TF.CreationDate,2023-09-07T02:08:47+09:00
; #@! TF.GenerationSoftware,Kicad,Pcbnew,(7.0.0-0)
; #@! TF.FileFunction,Plated,1,2,PTH
FMAT,2
METRIC
; #@! TA.AperFunction,Plated,PTH,ViaDrill
T1C0.300
; #@! TA.AperFunction,Plated,PTH,ViaDrill
T2C0.400
; #@! TA.AperFunction,Plated,PTH,ViaDrill
T3C0.500
; #@! TA.AperFunction,Plated,PTH,ComponentDrill
T4C0.800
; #@! TA.AperFunction,Plated,PTH,ComponentDrill
T5C1.000
; #@! TA.AperFunction,Plated,PTH,ComponentDrill
T6C1.600
; #@! TA.AperFunction,Plated,PTH,ComponentDrill
T7C3.200
%
G90
G05
T1
X125.095Y-69.215
X125.095Y-74.93
X126.89Y-73.75
X126.91Y-96.74
X127.0Y-102.235
X129.54Y-97.79
X129.54Y-102.235
X130.81Y-90.805
X131.16Y-141.8
X132.08Y-96.52
X132.08Y-102.235
X132.518Y-137.232
X134.51Y-118.86
X134.62Y-102.235
X134.67Y-132.29
X135.17Y-95.11
X135.17Y-137.32
X135.89Y-72.39
X137.06Y-74.91
X137.16Y-93.98
X137.16Y-102.235
X137.287Y-118.872
X137.29Y-132.24
X137.468Y-144.072
X137.795Y-69.215
X137.82Y-108.67
X138.0Y-137.28
X138.15Y-112.22
X138.51Y-126.25
X139.78Y-102.21
X139.86Y-87.47
X140.335Y-90.805
X140.47Y-132.41
X140.73Y-137.24
X140.91Y-109.97
X140.91Y-113.11
X142.23Y-81.03
X142.875Y-102.235
X143.148Y-137.302
X143.238Y-132.422
X143.45Y-113.18
X143.82Y-106.46
X145.24Y-124.96
X145.92Y-137.28
X145.928Y-132.432
X146.685Y-111.76
X147.18Y-118.75
X147.32Y-95.885
X147.5Y-100.58
X147.955Y-104.902
X148.398Y-132.412
X148.57Y-79.19
X148.73Y-137.3
X148.81Y-69.65
X148.89Y-71.9
X148.92Y-74.48
X149.2Y-89.55
X149.225Y-83.185
X150.495Y-111.76
X150.76Y-124.9
X151.118Y-132.392
X151.458Y-144.042
X151.53Y-137.3
X152.55Y-81.54
X152.56Y-84.58
X152.99Y-69.27
X153.09Y-71.51
X153.15Y-77.26
X153.18Y-74.47
X153.35Y-98.5
X153.728Y-132.342
X154.03Y-108.32
X154.26Y-137.25
X154.305Y-103.505
X155.05Y-79.27
X156.02Y-112.02
X157.39Y-129.3
X157.53Y-118.72
X157.57Y-81.55
X158.03Y-72.63
X158.3Y-137.6
X158.638Y-141.742
X159.42Y-83.73
X159.92Y-98.69
X160.74Y-126.13
X161.94Y-111.29
X162.14Y-98.7
X162.85Y-86.34
X163.195Y-81.915
X163.26Y-132.81
X164.19Y-69.43
X164.465Y-75.565
X164.465Y-103.505
X166.62Y-109.78
X167.17Y-90.56
T2
X123.68Y-145.41
X165.828Y-145.482
X165.93Y-125.91
T3
X138.39Y-70.77
X156.06Y-70.38
T4
X150.73Y-71.55
X150.73Y-74.09
X150.73Y-76.63
X150.73Y-79.17
X150.73Y-81.71
X150.73Y-84.25
X150.73Y-86.79
X150.73Y-89.33
X150.73Y-91.87
X150.73Y-94.41
X150.73Y-96.95
X150.73Y-99.49
X150.73Y-102.03
X150.73Y-104.57
X150.73Y-107.11
X155.448Y-82.931
X155.448Y-95.631
X161.036Y-82.931
X161.036Y-95.631
X165.97Y-71.55
X165.97Y-74.09
X165.97Y-76.63
X165.97Y-79.17
X165.97Y-81.71
X165.97Y-84.25
X165.97Y-86.79
X165.97Y-89.33
X165.97Y-91.87
X165.97Y-94.41
X165.97Y-96.95
X165.97Y-99.49
X165.97Y-102.03
X165.97Y-104.57
X165.97Y-107.11
T5
X128.44Y-103.94
X130.98Y-103.94
X133.09Y-128.17
X133.09Y-130.71
X133.24Y-114.9
X133.24Y-117.44
X133.52Y-103.94
X135.63Y-128.17
X135.63Y-130.71
X135.78Y-114.9
X135.78Y-117.44
X136.06Y-103.94
X138.17Y-128.17
X138.17Y-130.71
X138.32Y-114.9
X138.32Y-117.44
X138.6Y-103.94
X140.71Y-128.17
X140.71Y-130.71
X140.86Y-114.9
X140.86Y-117.44
X141.14Y-103.94
X143.25Y-128.17
X143.25Y-130.71
X143.4Y-114.9
X143.4Y-117.44
X145.79Y-128.17
X145.79Y-130.71
X145.94Y-114.9
X145.94Y-117.44
X148.33Y-128.17
X148.33Y-130.71
X148.48Y-114.9
X148.48Y-117.44
X150.87Y-128.17
X150.87Y-130.71
X151.02Y-114.9
X151.02Y-117.44
X153.41Y-128.17
X153.41Y-130.71
X153.56Y-114.9
X153.56Y-117.44
X155.95Y-128.17
X155.95Y-130.71
X156.1Y-114.9
X156.1Y-117.44
T6
X132.1Y-139.4
X133.485Y-142.24
X134.87Y-139.4
X136.255Y-142.24
X137.64Y-139.4
X139.025Y-142.24
X140.41Y-139.4
X141.795Y-142.24
X143.18Y-139.4
X144.565Y-142.24
X145.95Y-139.4
X147.335Y-142.24
X148.72Y-139.4
X150.105Y-142.24
X151.49Y-139.4
X152.875Y-142.24
X154.26Y-139.4
X155.645Y-142.24
X157.03Y-139.4
T7
X125.12Y-116.13
X125.158Y-129.412
X125.165Y-141.11
X163.965Y-141.11
T0
M30
