%TF.GenerationSoftware,KiCad,Pcbnew,(7.0.0-0)*%
%TF.CreationDate,2023-09-07T02:08:45+09:00*%
%TF.ProjectId,SPSD_DIY_NANO,53505344-5f44-4495-995f-4e414e4f2e6b,rev?*%
%TF.SameCoordinates,Original*%
%TF.FileFunction,Soldermask,Bot*%
%TF.FilePolarity,Negative*%
%FSLAX46Y46*%
G04 Gerber Fmt 4.6, Leading zero omitted, Abs format (unit mm)*
G04 Created by KiCad (PCBNEW (7.0.0-0)) date 2023-09-07 02:08:45*
%MOMM*%
%LPD*%
G01*
G04 APERTURE LIST*
G04 Aperture macros list*
%AMRoundRect*
0 Rectangle with rounded corners*
0 $1 Rounding radius*
0 $2 $3 $4 $5 $6 $7 $8 $9 X,Y pos of 4 corners*
0 Add a 4 corners polygon primitive as box body*
4,1,4,$2,$3,$4,$5,$6,$7,$8,$9,$2,$3,0*
0 Add four circle primitives for the rounded corners*
1,1,$1+$1,$2,$3*
1,1,$1+$1,$4,$5*
1,1,$1+$1,$6,$7*
1,1,$1+$1,$8,$9*
0 Add four rect primitives between the rounded corners*
20,1,$1+$1,$2,$3,$4,$5,0*
20,1,$1+$1,$4,$5,$6,$7,0*
20,1,$1+$1,$6,$7,$8,$9,0*
20,1,$1+$1,$8,$9,$2,$3,0*%
G04 Aperture macros list end*
%ADD10C,3.400000*%
%ADD11R,1.600000X1.600000*%
%ADD12C,1.600000*%
%ADD13C,0.600000*%
%ADD14O,1.600000X1.600000*%
%ADD15R,2.100000X2.200000*%
%ADD16O,2.100000X2.400000*%
%ADD17C,3.500000*%
%ADD18R,1.700000X1.700000*%
%ADD19O,1.700000X1.700000*%
%ADD20RoundRect,0.250000X-0.600000X0.600000X-0.600000X-0.600000X0.600000X-0.600000X0.600000X0.600000X0*%
%ADD21C,1.700000*%
%ADD22R,1.550000X1.300000*%
G04 APERTURE END LIST*
D10*
%TO.C,*%
X125120000Y-116130000D03*
%TD*%
D11*
%TO.C,D1*%
X161035999Y-82930999D03*
D12*
X161036000Y-95631000D03*
%TD*%
D13*
%TO.C,REF\u002A\u002A*%
X157814000Y-121852000D03*
X157814000Y-123652000D03*
X158830000Y-121852000D03*
X158830000Y-123652000D03*
X159846000Y-121852000D03*
X159846000Y-123652000D03*
X160862000Y-121852000D03*
X160862000Y-123652000D03*
X161878000Y-121852000D03*
X161878000Y-123652000D03*
%TD*%
%TO.C,REF\u002A\u002A*%
X127060000Y-121852000D03*
X127060000Y-123652000D03*
X128076000Y-121852000D03*
X128076000Y-123652000D03*
X129092000Y-121852000D03*
X129092000Y-123652000D03*
X130108000Y-121852000D03*
X130108000Y-123652000D03*
X131124000Y-121852000D03*
X131124000Y-123652000D03*
%TD*%
D12*
%TO.C,R1 10K*%
X155448000Y-95631000D03*
D14*
X155447999Y-82930999D03*
%TD*%
D10*
%TO.C,REF\u002A\u002A*%
X125158000Y-129412000D03*
%TD*%
D15*
%TO.C,U1*%
X132099999Y-139399999D03*
D16*
X134869999Y-139399999D03*
X137639999Y-139399999D03*
X140409999Y-139399999D03*
X143179999Y-139399999D03*
X145949999Y-139399999D03*
X148719999Y-139399999D03*
X151489999Y-139399999D03*
X154259999Y-139399999D03*
X157029999Y-139399999D03*
X133484999Y-142239999D03*
X136254999Y-142239999D03*
X139024999Y-142239999D03*
X141794999Y-142239999D03*
X144564999Y-142239999D03*
X147334999Y-142239999D03*
X150104999Y-142239999D03*
X152874999Y-142239999D03*
X155644999Y-142239999D03*
D17*
X125165000Y-141110000D03*
X163965000Y-141110000D03*
%TD*%
D18*
%TO.C,U2*%
X141139999Y-103939999D03*
D19*
X138599999Y-103939999D03*
X136059999Y-103939999D03*
X133519999Y-103939999D03*
X130979999Y-103939999D03*
X128439999Y-103939999D03*
%TD*%
D20*
%TO.C,J1*%
X133090000Y-128170000D03*
D21*
X133090000Y-130710000D03*
X135630000Y-128170000D03*
X135630000Y-130710000D03*
X138170000Y-128170000D03*
X138170000Y-130710000D03*
X140710000Y-128170000D03*
X140710000Y-130710000D03*
X143250000Y-128170000D03*
X143250000Y-130710000D03*
X145790000Y-128170000D03*
X145790000Y-130710000D03*
X148330000Y-128170000D03*
X148330000Y-130710000D03*
X150870000Y-128170000D03*
X150870000Y-130710000D03*
X153410000Y-128170000D03*
X153410000Y-130710000D03*
X155950000Y-128170000D03*
X155950000Y-130710000D03*
%TD*%
D22*
%TO.C,Eject SW1*%
X135074999Y-70769999D03*
X127124999Y-70769999D03*
X135074999Y-75269999D03*
X127124999Y-75269999D03*
%TD*%
D20*
%TO.C,J1*%
X133240000Y-114900000D03*
D21*
X133240000Y-117440000D03*
X135780000Y-114900000D03*
X135780000Y-117440000D03*
X138320000Y-114900000D03*
X138320000Y-117440000D03*
X140860000Y-114900000D03*
X140860000Y-117440000D03*
X143400000Y-114900000D03*
X143400000Y-117440000D03*
X145940000Y-114900000D03*
X145940000Y-117440000D03*
X148480000Y-114900000D03*
X148480000Y-117440000D03*
X151020000Y-114900000D03*
X151020000Y-117440000D03*
X153560000Y-114900000D03*
X153560000Y-117440000D03*
X156100000Y-114900000D03*
X156100000Y-117440000D03*
%TD*%
D11*
%TO.C,U1*%
X150729999Y-107109999D03*
D14*
X150729999Y-104569999D03*
X150729999Y-102029999D03*
X150729999Y-99489999D03*
X150729999Y-96949999D03*
X150729999Y-94409999D03*
X150729999Y-91869999D03*
X150729999Y-89329999D03*
X150729999Y-86789999D03*
X150729999Y-84249999D03*
X150729999Y-81709999D03*
X150729999Y-79169999D03*
X150729999Y-76629999D03*
X150729999Y-74089999D03*
X150729999Y-71549999D03*
X165969999Y-71549999D03*
X165969999Y-74089999D03*
X165969999Y-76629999D03*
X165969999Y-79169999D03*
X165969999Y-81709999D03*
X165969999Y-84249999D03*
X165969999Y-86789999D03*
X165969999Y-89329999D03*
X165969999Y-91869999D03*
X165969999Y-94409999D03*
X165969999Y-96949999D03*
X165969999Y-99489999D03*
X165969999Y-102029999D03*
X165969999Y-104569999D03*
X165969999Y-107109999D03*
%TD*%
M02*
