M48
; DRILL file {KiCad (7.0.0-0)} date Thursday, 07 September 2023 at 02:08:47
; FORMAT={-:-/ absolute / metric / decimal}
; #@! TF.CreationDate,2023-09-07T02:08:47+09:00
; #@! TF.GenerationSoftware,Kicad,Pcbnew,(7.0.0-0)
; #@! TF.FileFunction,NonPlated,1,2,NPTH
FMAT,2
METRIC
; #@! TA.AperFunction,NonPlated,NPTH,ComponentDrill
T1C0.600
%
G90
G05
T1
X127.06Y-121.852
X127.06Y-123.652
X128.076Y-121.852
X128.076Y-123.652
X129.092Y-121.852
X129.092Y-123.652
X130.108Y-121.852
X130.108Y-123.652
X131.124Y-121.852
X131.124Y-123.652
X157.814Y-121.852
X157.814Y-123.652
X158.83Y-121.852
X158.83Y-123.652
X159.846Y-121.852
X159.846Y-123.652
X160.862Y-121.852
X160.862Y-123.652
X161.878Y-121.852
X161.878Y-123.652
T0
M30
